<mxfile host="app.diagrams.net" modified="2023-11-27T17:36:11.371Z" agent="Mozilla/5.0 (Windows NT 10.0; Win64; x64) AppleWebKit/537.36 (KHTML, like Gecko) Chrome/119.0.0.0 Safari/537.36" etag="fBX3h9LFx8TfL7nF_Kpw" version="22.1.4" type="device">
  <diagram name="Page-1" id="JLppSDSjcVKa9NSkoYT0">
    <mxGraphModel dx="2607" dy="1669" grid="1" gridSize="10" guides="1" tooltips="1" connect="1" arrows="1" fold="1" page="1" pageScale="1" pageWidth="827" pageHeight="1169" math="0" shadow="0">
      <root>
        <mxCell id="0" />
        <mxCell id="1" parent="0" />
        <mxCell id="Mott5p-Jr3pgpUpNHuW7-2" value="&lt;font style=&quot;font-size: 45px;&quot;&gt;&lt;b&gt;Original Image&lt;/b&gt;&lt;/font&gt;" style="text;html=1;strokeColor=none;fillColor=none;align=center;verticalAlign=middle;whiteSpace=wrap;rounded=0;" parent="1" vertex="1">
          <mxGeometry x="240" y="102" width="380" height="30" as="geometry" />
        </mxCell>
        <mxCell id="Mott5p-Jr3pgpUpNHuW7-3" value="&lt;font style=&quot;font-size: 45px;&quot;&gt;&lt;b&gt;Ground Truth&lt;/b&gt;&lt;/font&gt;" style="text;html=1;strokeColor=none;fillColor=none;align=center;verticalAlign=middle;whiteSpace=wrap;rounded=0;" parent="1" vertex="1">
          <mxGeometry x="652" y="102" width="380" height="30" as="geometry" />
        </mxCell>
        <mxCell id="Mott5p-Jr3pgpUpNHuW7-4" value="&lt;span style=&quot;font-size: 45px;&quot;&gt;&lt;b&gt;Obtained Result&lt;/b&gt;&lt;/span&gt;" style="text;html=1;strokeColor=none;fillColor=none;align=center;verticalAlign=middle;whiteSpace=wrap;rounded=0;" parent="1" vertex="1">
          <mxGeometry x="1060" y="102" width="380" height="30" as="geometry" />
        </mxCell>
      </root>
    </mxGraphModel>
  </diagram>
</mxfile>
